<?xml version="1.0" standalone="no"?>
<!DOCTYPE svg PUBLIC "-//W3C//DTD SVG 1.1//EN" "http://www.w3.org/Graphics/SVG/1.1/DTD/svg11.dtd" >
<!--
2013-9-30: Created.
-->
<svg>
<metadata>
Created by iconfont
</metadata>
<defs>

<font id="iconfont" horiz-adv-x="1024" >
  <font-face
    font-family="iconfont"
    font-weight="500"
    font-stretch="normal"
    units-per-em="1024"
    ascent="896"
    descent="-128"
  />
    <missing-glyph />
    
    <glyph glyph-name="htmal5icon23" unicode="&#58942;" d="M774.630513 656.439926c-66.918086 71.697949-162.516374 114.716718-267.673365 114.716718-210.315006 0-382.391107-172.0761-382.391107-382.391107s172.0761-382.391107 382.391107-382.391107c176.855964 0 325.031724 124.277468 368.051517 286.792818l-100.377128 0c-38.238906-109.936855-143.396921-191.195553-267.673365-191.195553-157.736511 0-286.792818 129.057331-286.792818 286.792818 0 157.736511 129.057331 286.792818 286.792818 286.792818 81.257675 0 148.176784-33.459043 200.75528-86.037539l-152.956647-152.956647 334.591451 0 0 334.591451L774.630513 656.439926z"  horiz-adv-x="1024" />

    
    <glyph glyph-name="lajitong" unicode="&#58915;" d="M337.984 102.976c-16.064 0-28.992 12.608-28.992 28.096L308.992 440.192c0 15.552 12.992 28.096 28.992 28.096 16.064 0 28.992-12.608 28.992-28.096l0-309.056C366.976 115.584 353.984 102.976 337.984 102.976L337.984 102.976zM512 102.976c-16.064 0-28.992 12.608-28.992 28.096L483.008 440.192c0 15.552 12.992 28.096 28.992 28.096 16.064 0 28.992-12.608 28.992-28.096l0-309.056C540.992 115.584 528.064 102.976 512 102.976L512 102.976zM686.016 102.976c-16.064 0-28.992 12.608-28.992 28.096L657.024 440.192c0 15.552 12.992 28.096 28.992 28.096 16.064 0 28.992-12.608 28.992-28.096l0-309.056C715.072 115.584 702.08 102.976 686.016 102.976L686.016 102.976zM918.08 608.832l0-28.096-58.048 0 0-533.952c0-61.952-52.032-112.384-116.032-112.384L279.936-65.6c-64 0-116.032 50.432-116.032 112.384L163.904 580.736 105.92 580.736 105.92 608.832 76.864 608.832 76.864 636.928c0 61.952 52.032 112.384 116.032 112.384l120.128 0C326.016 797.696 371.072 833.6 424.96 833.6L599.04 833.6c53.888 0 98.944-35.904 111.936-84.288l120.128 0c64 0 116.032-50.432 116.032-112.384l0-28.096L918.08 608.832 918.08 608.832zM279.936-9.408l464.128 0c32 0 57.984 25.216 57.984 56.192L802.048 580.736 221.952 580.736l-4.032-533.952C217.92 15.808 248-9.408 279.936-9.408L279.936-9.408zM599.04 777.408 424.96 777.408c-21.376 0-39.872-11.392-49.92-28.096l273.92 0C638.912 766.016 620.416 777.408 599.04 777.408L599.04 777.408zM831.104 693.12 192.896 693.12c-32 0-57.984-25.216-57.984-56.192l69.12 0 145.024 0 325.888 0 145.024 0 69.12 0C889.088 667.904 863.04 693.12 831.104 693.12L831.104 693.12z"  horiz-adv-x="1024" />

    
    <glyph glyph-name="arrow-right-copy" unicode="&#58882;" d="M336.733 776.333l-56.278-55.72 334.857-337.154-337.673-334.315 55.802-56.184 393.944 390.040z"  horiz-adv-x="1024" />

    
    <glyph glyph-name="yonghu" unicode="&#58937;" d="M502.496 832.864c125.888 0 227.936-100.384 227.936-224.192 0-123.84-102.048-224.224-227.936-224.224-125.888 0-227.936 100.384-227.936 224.224C274.56 732.512 376.64 832.864 502.496 832.864L502.496 832.864zM502.496 832.864c125.888 0 227.936-100.384 227.936-224.192 0-123.84-102.048-224.224-227.936-224.224-125.888 0-227.936 100.384-227.936 224.224C274.56 732.512 376.64 832.864 502.496 832.864L502.496 832.864zM417.024 309.696l189.984 0c162.624 0 294.432-129.632 294.432-289.6l0-18.656c0-63.04-131.84-65.44-294.432-65.44l-189.984 0c-162.624 0-294.432 0.096-294.432 65.44l0 18.656C122.592 180.064 254.4 309.696 417.024 309.696L417.024 309.696zM417.024 309.696"  horiz-adv-x="1024" />

    
    <glyph glyph-name="qian" unicode="&#58895;" d="M529.453176 870.234353c-254.644706 0-461.793882-207.149176-461.793882-461.808941 0-117.458824 44.137412-229.391059 124.280471-315.166118 7.198118-7.695059 19.230118-8.116706 26.925176-0.933647 7.68 7.183059 8.101647 19.230118 0.903529 26.910118-73.532235 78.742588-114.010353 181.413647-114.010353 289.189647 0 233.652706 190.072471 423.710118 423.695059 423.710118 233.652706 0 423.710118-190.072471 423.710118-423.710118 0-233.622588-190.057412-423.695059-423.710118-423.695059-66.258824 0-129.716706 14.878118-188.581647 44.167529-9.411765 4.698353-20.841412 0.873412-25.539765-8.538353-4.683294-9.396706-0.843294-20.856471 8.553412-25.509647 64.195765-32 133.376-48.203294 205.568-48.203294 254.629647 0 461.808941 207.194353 461.808941 461.808941C991.262118 663.085176 784.082824 870.234353 529.453176 870.234353zM385.445647 347.557647c-12.483765 0-22.618353-10.646588-22.618353-23.777882 0-13.176471 10.134588-23.808 22.618353-23.808L504.470588 299.971765l0-78.561882c0-13.808941 11.203765-24.982588 24.982588-24.982588 13.808941 0 24.997647 11.173647 24.997647 24.982588L554.450824 299.971765l119.009882 0c12.483765 0 22.618353 10.631529 22.618353 23.808 0 13.131294-10.134588 23.777882-22.618353 23.777882l-119.009882 0 0 73.803294 119.009882 0c12.483765 0 22.618353 10.661647 22.618353 23.792941s-10.134588 23.808-22.618353 23.808l-106.465882 0 114.447059 114.447059c6.189176 6.189176 3.644235 18.748235-5.632 28.039529-9.291294 9.306353-21.850353 11.821176-28.039529 5.632l-121.118118-121.118118-121.133176 121.118118c-6.204235 6.189176-18.733176 3.674353-28.024471-5.632-9.306353-9.291294-11.821176-21.850353-5.647059-28.039529l114.432-114.447059-100.833882 0c-12.483765 0-22.618353-10.661647-22.618353-23.808s10.134588-23.792941 22.618353-23.792941L504.470588 421.360941l0-73.803294L385.445647 347.557647z"  horiz-adv-x="1024" />

    
    <glyph glyph-name="chakantiezishijian" unicode="&#58981;" d="M874.179108 746.080709C777.456788 842.744969 648.909794 896 512.10296 896 375.343491 896 246.779689 842.744969 150.097095 746.070014 53.379358 649.364501 0.118216 520.774725 0.118216 383.996921c-0.024446-136.793083 53.195443-265.353829 149.900956-362.11893 96.670371-96.613839 225.246396-149.878037 361.98753-149.878037 136.806834 0 265.42564 53.297812 362.172407 149.978879C1073.767443 221.58703 1073.798001 546.396117 874.179108 746.080709L874.179108 746.080709 874.179108 746.080709zM826.994433 69.172676c-84.130878-84.118655-195.994709-130.492014-314.986203-130.492014-118.90746 0-230.743788 46.350441-314.819662 130.392701C113.111166 153.166043 66.820314 265.006955 66.838649 383.996921c0 118.97316 46.313771 230.826295 130.420203 314.899113 84.094208 84.074346 195.893867 130.372838 314.844108 130.372838 118.954825 0 230.77893-46.296964 314.891473-130.378949C1000.583984 525.25759 1000.583984 242.74542 826.994433 69.172676L826.994433 69.172676 826.994433 69.172676zM733.350836 258.524066l-176.979966 102.351112L556.37087 639.999989c0 23.557196-19.111001 42.666669-42.674308 42.666669-23.544973 0-42.655973-19.109473-42.655973-42.666669l0-298.669736c0-15.826011 19.671741-29.095841 32.467921-36.437411 3.538621-5.329323 13.268303-10.15291 19.199619-13.564716l176.000581-106.673547c20.388327-11.769431 42.495544-4.774694 54.271086 15.619744 11.775542 20.40055 0.811316 46.469617-19.630487 58.245159l0 0L733.349308 258.524066zM733.350836 258.524066"  horiz-adv-x="1024" />

    
    <glyph glyph-name="fanhui" unicode="&#58921;" d="M703.90502 829.368381c10.177258 0 20.575561-3.984942 28.547491-11.784948 15.598989-15.763749 15.598989-41.159308 0-56.86575L363.355235 391.729906c-4.426007-4.314462-4.426007-11.281457 0-15.652203l369.097276-368.876231c15.600012-15.821057 15.600012-41.158285 0-56.870866-15.824127-15.594896-41.3824-15.594896-56.983435 0L306.484368 319.318382c-35.51551 35.626032-35.51551 93.54686 0 129.171869L675.469075 817.586503C683.21382 825.386509 693.505694 829.368381 703.90502 829.368381L703.90502 829.368381z"  horiz-adv-x="1024" />

    
    <glyph glyph-name="shouye1-copy" unicode="&#58958;" d="M512.546 809.95c0 0-12.561 0.546-24.030-7.1-12.015-8.192-462.029-380.109-462.029-380.109s-32.768-25.668 2.731-70.997 74.82-3.823 74.82-3.823l407.962 359.356 414.515-364.817c0 0 36.591-30.583 70.451 11.469 33.86 42.598-3.277 72.090-3.277 72.090l-121.242 99.942v175.309h-164.932v-39.868l-168.209 139.81c0 0-10.923 9.83-26.761 8.738zM512.546 654.848l-410.146-357.171v-300.919l333.141-0.546v246.306l152.917-1.638v-244.122l333.141-0.546v300.919z"  horiz-adv-x="1024" />

    
    <glyph glyph-name="xingxing" unicode="&#58946;" d="M949.12 509.408c-4.864 15.008-17.856 25.952-33.44 28.192l-256.992 37.344-114.944 232.896c-6.976 14.144-21.376 23.104-37.152 23.104-15.776 0-30.176-8.96-37.152-23.104l-114.944-232.896L97.472 537.6c-15.616-2.272-28.576-13.184-33.44-28.192s-0.8-31.456 10.496-42.464l185.984-181.28-43.904-255.968c-2.656-15.552 3.712-31.264 16.48-40.544 12.768-9.28 29.664-10.496 43.648-3.136l229.888 120.864 229.856-120.864c6.048-3.168 12.672-4.768 19.264-4.768 8.576 0 17.152 2.656 24.352 7.904 12.768 9.28 19.136 24.992 16.48 40.544l-43.904 255.968 185.984 181.28C949.92 477.952 953.984 494.4 949.12 509.408z"  horiz-adv-x="1024" />

    
    <glyph glyph-name="19-copy" unicode="&#58887;" d="M509.127 640.564c141.272 0 255.838-114.534 255.838-255.827 0-141.293-114.566-255.827-255.838-255.827-141.299 0-255.837 114.534-255.837 255.827 0.001 141.293 114.539 255.827 255.837 255.827z"  horiz-adv-x="1024" />

    
    <glyph glyph-name="icon3" unicode="&#58939;" d="M399.113465 415.510668 145.638473 415.510668c-44.467771 0-81.527828 57.805544-81.527828 102.276385L64.110645 750.507348c0 44.469817 37.061081 81.528851 81.527828 81.528851L399.113465 832.036199c44.470841 0 81.510432-37.059034 81.510432-81.528851l0-251.984035C480.623897 452.571748 443.584306 415.510668 399.113465 415.510668L399.113465 415.510668 399.113465 415.510668M418.387437 731.241562c0 20.754696-16.312524 37.059034-37.077453 37.059034L161.942811 768.300596c-19.274996 0-35.579333-16.305361-35.579333-37.059034l0-219.385593c0-20.745487 16.304338-37.049824 37.060057-37.049824l219.376383 0c20.763906 0 37.058011 16.303314 37.058011 37.049824L419.857928 731.241562 418.387437 731.241562 418.387437 731.241562M877.883643 415.510668 624.410698 415.510668c-44.471864 0-81.508385 57.805544-81.508385 102.276385L542.902312 750.507348c0 44.469817 37.036521 81.528851 81.508385 81.528851l253.471922 0c44.471864 0 81.532945-37.059034 81.532945-81.528851l0-251.984035C959.415564 452.571748 923.825998 415.510668 877.883643 415.510668L877.883643 415.510668 877.883643 415.510668M897.159662 731.241562c0 20.754696-16.295128 37.059034-37.059034 37.059034L642.216225 768.300596c-20.766976 0-37.078477-16.305361-37.078477-37.059034l0-219.385593c0-20.745487 16.311501-37.049824 37.078477-37.049824l219.374336 0c20.745487 0 37.038568 16.303314 37.038568 37.049824L898.629129 731.241562 897.159662 731.241562 897.159662 731.241562M877.883643-63.27793 624.410698-63.27793c-44.471864 0-81.508385 57.824987-81.508385 102.294804L542.902312 270.234957c0 44.481074 37.036521 81.542154 81.508385 81.542154l253.471922 0c44.471864 0 81.532945-37.061081 81.532945-81.542154l0-251.983012C959.415564-26.199453 923.825998-63.27793 877.883643-63.27793L877.883643-63.27793 877.883643-63.27793M897.159662 252.471384c0 20.74344-16.295128 37.038568-37.059034 37.038568L642.216225 289.509952c-20.766976 0-37.078477-16.295128-37.078477-37.038568l0-219.394802c0-20.74651 16.311501-37.059034 37.078477-37.059034l219.374336 0c20.745487 0 37.038568 16.311501 37.038568 37.059034L898.629129 252.471384 897.159662 252.471384 897.159662 252.471384M399.113465-63.27793 145.638473-63.27793c-44.467771 0-81.527828 57.824987-81.527828 102.294804L64.110645 270.234957c0 44.481074 37.061081 81.542154 81.527828 81.542154L399.113465 351.777111c44.470841 0 81.510432-37.061081 81.510432-81.542154l0-251.983012C480.623897-26.199453 443.584306-63.27793 399.113465-63.27793L399.113465-63.27793 399.113465-63.27793M418.387437 252.471384c0 20.74344-16.312524 37.038568-37.077453 37.038568L161.942811 289.509952c-20.75265 0-37.056987-16.295128-37.056987-37.038568l0-219.394802c0-20.74651 16.305361-37.059034 37.056987-37.059034l219.367173 0c20.764929 0 37.077453 16.311501 37.077453 37.059034L418.387437 252.471384 418.387437 252.471384 418.387437 252.471384M439.133947 747.544877"  horiz-adv-x="1024" />

    
    <glyph glyph-name="dppj" unicode="&#58894;" d="M877.847 360.727c-45.056 0-112.431 11.846-139.939 43.729-27.462-31.884-71.028-43.729-116.061-43.729-44.986 0-82.292 11.823-109.777 43.706-27.508-31.884-54.668-43.706-99.677-43.706-44.986 0-98.723 11.823-126.231 43.729-27.485-31.907-84.736-43.729-129.769-43.729-82.711 0-156.346 59.741-156.346 143.337 0 2.374 0.233 4.678 0.652 6.912-1.071 5.585-0.884 11.497 0.768 17.338l90.391 318.976c19.805 48.5 56.39 48.71 85.946 48.71h667.788c30.604 0 71.238-0.209 86.249-47.593l90.833-332.451c1.071-3.84 1.489-7.727 1.327-11.52 0-0.116 0-0.256 0.023-0.372 0-83.596-63.558-143.337-146.176-143.337zM877.847 826.182c-4.817 0.233-18.688 0.14-23.273 0h-674.909c-5.772 0.070-18.758 0.303-23.273 0l-83.037-315.369c0.396-2.188 0.605-4.445 0.605-6.749 0-42.356 34.071-76.87 75.985-76.87 41.914 0 99.258 34.513 99.258 76.87 0 20.666 16.547 37.423 36.957 37.423 20.41 0 36.957-16.756 36.957-37.423 0-42.356 34.071-76.87 75.985-76.87 41.891 0 75.985 34.513 75.985 76.87 0 20.666 16.547 37.423 36.957 37.423 20.387 0 36.934-16.756 36.934-37.423 0-42.356 34.095-76.87 75.985-76.87 41.844 0 75.916 34.513 75.916 76.87 0 20.666 16.547 37.423 36.957 37.423 0 0 0.023 0 0.023 0 0.023 0 0.047 0 0.047 0 20.387 0 36.957-16.756 36.957-37.423 0-42.356 57.414-76.87 99.328-76.87 40.96 0 74.473 33.094 75.846 74.24l-72.192 324.748zM116.759 290.63c20.387 0 36.957-16.78 36.957-37.423v-183.203c0-41.472 31.535-81.641 72.495-81.641h186.182c20.387 0 33.489-10.356 33.489-30.999 0-20.666-16.477-37.423-36.887-37.423h-181.015c-81.664 0-141.405 55.459-141.405 138.24v186.182c0 20.666 9.775 46.266 30.185 46.266zM484.236 304.244c11.008 9.425 25.181 14.615 39.889 14.615 13.033 0 25.786-4.236 36.212-11.985 9.658 7.75 21.76 11.985 34.351 11.985 12.567 0 24.669-4.236 34.351-11.985 10.403 7.75 23.156 11.985 36.189 11.985 14.708 0 28.881-5.19 39.889-14.615 11.008-9.425 17.967-22.272 19.596-36.189l0.070-1.164v-119.505c0-22.319-6.982-43.776-20.224-62.045-11.404-15.756-26.903-28.369-44.893-36.538l-0.023-124.835c0-28.649-24.273-51.968-54.109-51.968h-21.713c-29.836 0-54.109 23.319-54.109 51.968v124.835c-18.013 8.192-33.489 20.783-44.916 36.538-13.219 18.269-20.201 39.727-20.201 62.045v120.087l0.070 0.582c1.606 13.917 8.564 26.764 19.572 36.189zM510.813 152.576c0-29.3 17.804-55.040 44.311-64.047 14.243-4.841 21.644-14.941 20.852-28.463-0.023-0.163-0.023-0.303-0.023-0.396v-130.513c0-6.935 5.958-12.567 13.312-12.567h10.845c7.331 0 13.312 5.632 13.312 12.567v131.398c-0.14 19.293 15.081 25.6 20.806 27.974 26.927 11.171 44.311 36.305 44.311 64.047v113.408c-3.328 4.631-11.497 8.285-18.735 8.285-7.238 0-15.407-3.654-18.735-8.285v-97.815c0-4.515-3.77-8.192-8.401-8.192h-10.845c-4.655 0-8.401 3.677-8.401 8.192v97.815c-3.351 4.631-11.52 8.285-18.735 8.285-7.238 0-15.407-3.654-18.758-8.285l0.023-97.815c0-4.515-3.77-8.192-8.401-8.192h-10.868c-4.631 0-8.401 3.677-8.401 8.192v97.815c-3.328 4.631-11.497 8.285-18.735 8.285-7.215 0-15.407-3.654-18.735-8.285v-113.408zM883.060 318.86h32.559c17.873 0 32.419-13.987 32.419-31.185v-363.706c0-28.649-24.297-51.968-54.132-51.968h-21.713c-29.836 0-54.109 23.319-54.109 51.968v75.916c-14.033 3.98-26.461 11.683-36.049 22.365-11.753 13.103-18.223 29.882-18.223 47.197v135.098c0 30.557 12.428 59.299 34.979 80.896 22.528 21.551 52.433 33.42 84.271 33.42zM810.054 79.849c0-17.873 12.777-33.257 31.069-37.423 0.186-0.023 5.748-1.21 11.357-4.724 7.75-4.864 11.846-11.869 11.846-20.201v-88.343c0-6.935 5.958-12.567 13.312-12.567h10.845c7.331 0 13.312 5.632 13.312 12.567v338.874c0 3.444-3.002 6.237-6.679 6.237h-12.055c-14.801 0-32.861-8.425-47.127-21.993-16.687-15.895-25.879-36.538-25.879-58.135v-114.292z"  horiz-adv-x="1025" />

    
    <glyph glyph-name="jianhao" unicode="&#58888;" d="M512 864C246.912 864 32 649.088 32 384c0-265.088 214.912-480 480-480s480 214.912 480 480c0 265.088-214.912 480-480 480z m256-512H256v64h512v-64z"  horiz-adv-x="1024" />

    
    <glyph glyph-name="jiahao1" unicode="&#58886;" d="M828.02 699.482C743.477 783.616 631.108 829.95 511.546 829.95c-119.558 0-231.954-46.333-316.5-130.467-84.578-84.162-131.17-196.112-131.17-315.195 0-119.112 46.592-231.028 131.135-315.189 84.548-84.133 196.946-130.467 316.507-130.467 119.56 0 231.96 46.334 316.474 130.467 84.611 84.19 131.198 196.14 131.169 315.222 0.03 119.086-46.529 231-131.141 315.162z m-92.63-347.167H543.525v-191.863c0-17.683-14.326-31.975-31.98-31.975-17.646 0-31.973 14.292-31.973 31.975V352.315H287.711c-17.648 0-31.972 14.324-31.972 31.972 0 17.653 14.324 31.98 31.972 31.98h191.863v191.86c0 17.649 14.326 31.975 31.973 31.975 17.654 0 31.98-14.326 31.98-31.974v-191.861h191.862c17.682 0 31.973-14.327 31.973-31.98 0-17.648-14.291-31.972-31.973-31.972z m0 0"  horiz-adv-x="1024" />

    
    <glyph glyph-name="kaisuo" unicode="&#58961;" d="M887.207-91.309H136.793V422.225h124.058V611.279c0 136.756 112.669 248.029 251.171 248.029 138.48 0 251.149-111.273 251.149-248.029v-59.651h-41.52v59.651c0 113.869-94.036 206.509-209.607 206.509-115.593 0-209.651-92.64-209.651-206.509v-189.054h584.836v-513.534z m-708.894 41.52h667.374V380.727H178.313v-430.516z"  horiz-adv-x="1024" />

    
    <glyph glyph-name="gou1" unicode="&#59015;" d="M512.001 895.938C229.265 895.938 0.063 666.736 0.063 384s229.202-511.936 511.938-511.936c282.737 0 511.936 229.2 511.936 511.936S794.735 895.938 512.001 895.938z m293.637-379.147l-331.1-331.099-0.01-0.01c-15.264-15.268-38.539-17.65-56.308-7.157a46.646 46.646 0 0 0-9.225 7.165L218.367 376.317c-18.093 18.094-18.093 47.435 0 65.532 18.094 18.094 47.434 18.094 65.528 0l157.874-157.874L740.11 582.317c18.098 18.094 47.436 18.094 65.53 0 18.09-18.094 18.09-47.431-0.002-65.526z"  horiz-adv-x="1024" />

    
    <glyph glyph-name="shuben-" unicode="&#59012;" d="M950.576 593.095H936.83c-10.33 0-18.776 8.44-18.776 18.767v36.725c0.046 10.66-7.334 19.495-17.754 21.475-142.243 27.216-271.55 26.728-369.984-42.648-17.562-12.355-19.203-12.261-36.522 0-98.58 69.284-227.898 69.864-370.131 42.648-10.374-1.98-17.754-10.807-17.754-21.475v-36.725c0-10.328-8.403-18.767-18.777-18.767H73.378c-12.07 0-21.863-9.839-21.863-21.909l0.156-439.609c0-12.068 9.84-21.909 21.9-21.909h371.486c6.9 0 12.502-5.592 12.502-12.445 0-7.438 4.874-13.461 12.54-13.461h83.764c6.948 0 12.54 5.638 12.54 12.5 0 7.437 4.83 13.407 12.55 13.407h371.484c12.004 0 21.863 9.841 21.863 21.909l0.184 439.61c0 12.068-9.838 21.907-21.908 21.907z m-469.34-440.73c-87.617 54.763-201.834 60.993-323.568 40.722-12.446-2.072-23.65 7.433-23.65 20.03l-0.128 415.2c0 10.762 7.62 19.782 18.242 21.625 126.94 21.374 243.855 12.971 328.977-51.382 10.898-8.2 16.74-19.982 16.74-33.637l0.148-403.225c-0.01-8.698-9.372-13.915-16.761-9.334z m408.744 60.752c0-12.598-11.193-22.103-23.697-20.03-121.733 20.27-235.903 14.04-323.52-40.723-7.333-4.58-16.787 0.636-16.787 9.324l0.185 403.225c0 13.653 5.795 25.438 16.704 33.637 85.157 64.355 202.027 72.758 328.976 51.383 10.658-1.843 18.278-10.863 18.278-21.624l-0.139-415.192z"  horiz-adv-x="1024" />

    
    <glyph glyph-name="ku-" unicode="&#59107;" d="M946.536 654.906c-49.282 78.89-119.04 142.94-201.738 185.224-9.836 5.026-21.898 1.134-26.932-8.708-5.032-9.842-1.134-21.902 8.708-26.934 76.246-38.988 140.568-98.048 186.012-170.792 46.7-74.756 71.386-161.1 71.386-249.696 0-260.248-211.724-471.97-471.97-471.97S40.03 123.756 40.03 384.002 251.752 855.97 512 855.97c11.054 0 20.014 8.958 20.014 20.014C532.014 887.042 523.054 896 512 896 229.68 896 0 666.32 0 384.002S229.68-128 512-128s512 229.68 512 512c0 96.106-26.788 189.784-77.464 270.906zM441.664 548.756c-44.144 0-80.058-35.914-80.058-80.058 0-44.144 35.914-80.058 80.058-80.058 44.144 0 80.058 35.914 80.058 80.058 0 44.144-35.914 80.058-80.058 80.058z m0-120.088c-22.072 0-40.03 17.954-40.03 40.03 0 22.072 17.958 40.03 40.03 40.03 22.072 0 40.03-17.958 40.03-40.03-0.002-22.074-17.958-40.03-40.03-40.03zM779.708 548.756c-44.144 0-80.058-35.914-80.058-80.058 0-44.144 35.914-80.058 80.058-80.058s80.058 35.914 80.058 80.058c0.002 44.144-35.912 80.058-80.058 80.058z m0-120.088c-22.072 0-40.03 17.954-40.03 40.03 0 22.072 17.958 40.03 40.03 40.03s40.03-17.958 40.03-40.03c0-22.074-17.958-40.03-40.03-40.03zM747.962 77.938c-25.824 46.36-74.802 75.16-127.822 75.16-51.51 0.002-100.65-28.586-128.238-74.604-5.684-9.482-2.608-21.774 6.874-27.458 9.48-5.682 21.774-2.602 27.458 6.874 20.398 34.026 56.38 55.16 93.908 55.16 38.51 0 74.09-20.924 92.85-54.608a20.004 20.004 0 0 1 27.226-7.748c9.658 5.382 13.124 17.568 7.744 27.224zM484.834 297.622c-15.726 26.994-31.214 49.35-31.866 50.29a20.012 20.012 0 0 1-32.884 0c-0.652-0.94-16.14-23.294-31.866-50.29-30.238-51.9-33.734-73.208-33.734-84.718-0.002-45.238 36.802-82.042 82.042-82.042s82.042 36.804 82.042 82.042c0 11.51-3.5 32.818-33.734 84.718z m-48.308-126.73c-23.164 0-42.012 18.848-42.012 42.012-0.002 13.898 19.674 51.884 42.012 87.302 22.34-35.418 42.012-73.404 42.012-87.302 0-23.166-18.848-42.012-42.012-42.012zM663.928 850.634m-20.014 0a20.014 20.014 0 1 1 40.028 0 20.014 20.014 0 1 1-40.028 0Z"  horiz-adv-x="1024" />

    
    <glyph glyph-name="qingkong" unicode="&#58929;" d="M711.566222 3.640889c-0.113778-5.461333-1.991111-7.338667-4.494222-7.338667H295.879111a4.323556 4.323556 0 0 0-4.437333 4.323556L238.08 592.611556a28.615111 28.615111 0 0 1-31.402667 25.6l-9.443555-0.796445a28.899556 28.899556 0 0 1-26.339556-30.776889l53.304889-589.027555C224.028444-39.424 256.568889-71.111111 295.879111-71.111111h411.192889a71.68 71.68 0 0 1 71.850667 71.793778l53.134222 586.126222a28.558222 28.558222 0 0 1-26.339556 30.606222l-9.386666 0.853333a28.842667 28.842667 0 0 1-31.402667-25.486222l-53.361778-589.141333zM182.897778 619.292444c-0.455111 0-1.706667 1.194667-1.706667 1.649778v35.328c0 1.080889 0.568889 1.649778 1.706667 1.649778h635.790222c0.455111 0 1.649778-1.251556 1.649778-1.649778v-35.328c0-1.137778-0.568889-1.649778-1.649778-1.649778h-55.751111a28.842667 28.842667 0 0 1-28.615111-28.956444v-9.500444a29.013333 29.013333 0 0 1 28.615111-28.956445h55.751111a68.835556 68.835556 0 0 1 69.12 69.063111v35.328A69.802667 69.802667 0 0 1 818.688 725.333333H182.897778A68.835556 68.835556 0 0 1 113.777778 656.270222v-35.328c0-37.660444 31.459556-69.063111 69.12-69.063111h55.808a28.785778 28.785778 0 0 1 28.558222 28.956445v9.500444a29.013333 29.013333 0 0 1-28.558222 28.956444h-55.808zM426.609778 725.333333h170.837333c15.758222 0 28.330667 12.572444 28.330667 28.444445s-12.572444 28.444444-28.330667 28.444444H426.609778C410.737778 782.222222 398.222222 769.649778 398.222222 753.777778s12.572444-28.444444 28.387556-28.444445z m0 113.777778h170.837333C644.494222 839.111111 682.666667 801.223111 682.666667 753.777778c0-47.104-37.831111-85.333333-85.219556-85.333334H426.609778A85.105778 85.105778 0 0 0 341.333333 753.777778C341.333333 800.881778 379.164444 839.111111 426.609778 839.111111zM466.375111 99.669333c0-15.644444 13.027556-28.330667 29.013333-28.330666h9.443556a28.728889 28.728889 0 0 1 28.956444 28.330666V518.769778a28.672 28.672 0 0 1-28.956444 28.330666h-9.443556a28.728889 28.728889 0 0 1-29.013333-28.330666v-419.100445zM334.563556 99.612444a28.672 28.672 0 0 1 30.094222-27.079111l9.443555 0.341334a28.728889 28.728889 0 0 1 27.818667 29.468444l-16.725333 417.905778a28.728889 28.728889 0 0 1-30.151111 27.079111l-9.443556-0.398222a28.728889 28.728889 0 0 1-27.818667-29.468445l16.782223-417.848889zM599.552 102.115556a28.558222 28.558222 0 0 1 27.875556-29.240889l9.443555-0.341334a28.501333 28.501333 0 0 1 29.980445 27.079111l15.587555 416.711112a28.444444 28.444444 0 0 1-27.875555 29.240888l-9.443556 0.398223a28.672 28.672 0 0 1-30.037333-27.136l-15.530667-416.711111z"  horiz-adv-x="1024" />

    
    <glyph glyph-name="saoma" unicode="&#58889;" d="M926.641113 353.556641H94.968443c-17.660218 0-31.992645 14.33038-31.992645 31.982412 0 17.661242 14.331403 31.992645 31.992645 31.992645h831.67267c17.687848 0 31.993668-14.331403 31.993669-31.992645-0.005117-17.652032-14.305821-31.982412-31.993669-31.982412z m-95.962585-383.857505H638.753357c-17.687848 0-31.989575 14.303774-31.989575 31.993668 0 17.685801 14.301727 31.986505 31.989575 31.986505h191.925171c17.656125 0 31.988552 14.332427 31.988552 31.983436V225.602434c0 17.688871 14.294564 31.989575 31.991621 31.989575 17.688871 0 31.979342-14.300704 31.979342-31.989575v-159.940713c0.00307-52.901861-43.053562-95.962585-95.959515-95.962585z m-479.81395 0H190.923866c-52.901861 0-95.959515 43.060725-95.959516 95.962585V225.602434c0 17.688871 14.331403 31.989575 31.982412 31.989575 17.661242 0 31.992645-14.300704 31.992645-31.989575v-159.940713c0-17.651009 14.359033-31.983435 31.983435-31.983435h159.936619c17.660218 0 31.992645-14.300704 31.992645-31.986505 0.001023-17.689894-14.331403-31.992645-31.987528-31.992645zM126.952902 513.495306c-17.657148 0-31.983435 14.326287-31.983435 31.983435V705.416384c0 52.912094 43.052538 95.963609 95.955422 95.963608h159.936619c17.660218 0 31.992645-14.331403 31.992645-31.988551 0-17.652032-14.331403-31.982412-31.992645-31.982412H190.923866c-17.624403 0-31.983435-14.362102-31.983436-31.992645v-159.936619c-0.001023-17.657148-14.332427-31.984459-31.987528-31.984459z m767.704776 0c-17.697057 0-31.991622 14.326287-31.991622 31.983435V705.416384c0 17.625426-14.32731 31.992645-31.988551 31.992645H638.753357c-17.687848 0-31.989575 14.331403-31.989575 31.982412 0 17.656125 14.301727 31.988552 31.989575 31.988551h191.925171c52.905954 0 95.958492-43.051515 95.958492-95.963608v-159.936619c0.004093-17.657148-14.290471-31.984459-31.979342-31.984459z m0 0"  horiz-adv-x="1024" />

    
    <glyph glyph-name="xiugai" unicode="&#58940;" d="M694.3 24H311.8c-98 0-177.8 77.9-177.8 173.6V554.3c0 95.7 79.8 173.6 177.8 173.6h266.3c19 0 34.3-15 34.3-33.5s-15.4-33.5-34.3-33.5H311.8c-60.2 0-109.2-47.8-109.2-106.6v-356.6c0-58.8 49-106.6 109.2-106.6h382.4c60.2 0 109.2 47.8 109.2 106.6v269c0 18.5 15.4 33.5 34.3 33.5 19 0 34.3-15 34.3-33.5v-269.1c0.1-95.7-79.7-173.6-177.7-173.6zM739.9 680.4L380.8 329.8l-30.3-112.5 115.3 29.6 359.1 350.6zM872.4 726.8c-23.5 22.9-61.5 22.9-85 0L769.2 709l85-83 18.2 17.8c23.5 23 23.5 60.1 0 83z"  horiz-adv-x="1024" />

    
    <glyph glyph-name="weixin" unicode="&#59010;" d="M693.23776 548.6848c11.7504 0 23.35744-0.86528 34.89792-2.1504-31.35488 146.03776-187.47904 254.52032-365.69088 254.52032C163.22048 801.05472 0.00512 665.25696 0.00512 492.82048c0-99.52768 54.29248-181.26336 145.0496-244.66432l-36.2496-109.02528 126.67392 63.53408c45.35808-8.9856 81.72032-18.19648 126.96576-18.19648 11.3664 0 22.65088 0.55808 33.8432 1.42848-7.0912 24.23296-11.19744 49.6128-11.19744 75.93984 0.00512 158.34112 135.97184 286.84288 308.1472 286.848zM498.35008 646.94272c27.28448 0 45.35808-17.9456 45.35808-45.22496 0-27.1616-18.0736-45.35808-45.35808-45.35808-27.16672 0-54.41536 18.19648-54.41536 45.35808 0 27.28448 27.24864 45.22496 54.41536 45.22496zM244.7104 556.35968c-27.16672 0-54.59456 18.19648-54.59456 45.35808 0 27.27936 27.42784 45.22496 54.59456 45.22496 27.1616 0 45.24032-17.9456 45.24032-45.22496 0-27.1616-18.07872-45.35808-45.24032-45.35808zM1024.00512 266.20416c0 144.896-144.98304 263.00928-307.85024 263.00928-172.44672 0-308.26496-118.11328-308.26496-263.00928 0-145.16224 135.81824-263.00416 308.26496-263.00416 36.096 0 72.5248 9.10848 108.76416 18.19648l99.39968-54.44608-27.25376 90.56768C969.82528 112.09728 1024.00512 184.46848 1024.00512 266.20416z m-407.77216 45.34784c-18.05312 0-36.2752 17.9456-36.2752 36.25984 0 18.05824 18.22208 36.23936 36.2752 36.23936 27.39712 0 45.35808-18.18112 45.35808-36.23936 0.00512-18.31936-17.96096-36.25984-45.35808-36.25984z m199.3472 0c-17.93536 0-36.01408 17.9456-36.01408 36.25984 0 18.05824 18.07872 36.23936 36.01408 36.23936 27.1616 0 45.35296-18.18112 45.35296-36.23936 0.00512-18.31936-18.19136-36.25984-45.35296-36.25984z"  horiz-adv-x="1024" />

    
    <glyph glyph-name="mima" unicode="&#58962;" d="M820 496h-28v56c0 154.6-125.4 280-280 280S232 706.6 232 552v-56h-28c-30.9 0-56-25.1-56-56v-448c0-30.9 25.1-56 56-56h616c30.9 0 56 25.1 56 56V440c0 30.9-25.1 56-56 56z m-532 56c0 123.5 100.5 224 224 224s224-100.5 224-224v-56H288v56z m532-560H204V440h616v-448zM512 328c-15.5 0-28-12.5-28-28v-168c0-15.5 12.5-28 28-28s28 12.5 28 28V300c0 15.5-12.5 28-28 28z"  horiz-adv-x="1024" />

    
    <glyph glyph-name="dingdan" unicode="&#58908;" d="M861.6 764.8h-158.4c0 35.2-28.8 63.2-63.2 63.2h-254.4c-35.2 0-63.2-28.8-63.2-63.2h-158.4c-35.2 0-63.2-28.8-63.2-63.2v-698.4c0-35.2 28.8-63.2 63.2-63.2h698.4c35.2 0 63.2 28.8 63.2 63.2v698.4c-0.8 35.2-29.6 63.2-64 63.2z m-444.8 0h190.4c17.6 0 32-14.4 32-32s-14.4-32-32-32h-190.4c-17.6 0-32 14.4-32 32 0 18.4 14.4 32 32 32z m444.8-730.4c0-17.6-14.4-32-32-32h-635.2c-17.6 0-32 14.4-32 32v635.2c0 17.6 14.4 32 32 32h127.2c0-35.2 28.8-63.2 63.2-63.2h254.4c35.2 0 63.2 28.8 63.2 63.2h127.2c17.6 0 32-14.4 32-32v-635.2z m-183.2 435.2l-231.2-231.2-104.8 104.8c-12 12-31.2 12-43.2 0-12-12-12-31.2 0-43.2l122.4-121.6 4.8-7.2c6.4-6.4 15.2-9.6 23.2-9.6 7.2 0 14.4 2.4 20 7.2l2.4 2.4 252 252c12.8 12.8 12.8 33.6 0 46.4-12 12.8-32.8 12.8-45.6 0z"  horiz-adv-x="1024" />

    
    <glyph glyph-name="iconjia" unicode="&#58880;" d="M902.947 324.97299999999996h-332.293v-332.346c0-32.387-26.267-58.628-58.655-58.628-32.387 0-58.654 26.241-58.654 58.628v332.346h-332.295c-32.414 0-58.654 26.241-58.654 58.628 0 32.375 26.243 58.628 58.654 58.628h332.293v332.346c0 32.375 26.267 58.628 58.654 58.628 32.388 0 58.655-26.254 58.655-58.628v-332.347h332.293c32.414 0 58.655-26.252 58.655-58.626-0.001-32.387-26.241-58.626-58.655-58.626z"  horiz-adv-x="1024" />

    
    <glyph glyph-name="lianxikefu" unicode="&#58953;" d="M941.215 444.032c0 223.473-186.087 404.634-415.596 404.634-229.509 0-415.539-181.161-415.539-404.634 0-219.663 179.743-398.397 403.876-404.429L487.322-86.41l280.033 201.298c105.272 73.405 173.86 193.484 173.86 329.144zM748.483 334.044c-2.438-5.683-61.635-138.598-221.133-138.598-164.624 0-222.306 133.176-224.697 138.854-5.985 14.254 1.117 30.592 15.78 36.424 14.659 5.832 31.355-0.963 37.392-15.227 1.925-4.51 46.418-104.151 171.525-104.151 121.748 0 167.716 103.29 168.176 104.305 6.134 14.259 22.979 20.956 37.591 14.965 14.608-5.975 21.504-22.364 15.366-36.572z"  horiz-adv-x="1024" />

    
    <glyph glyph-name="iconjian" unicode="&#58881;" d="M903.053 325.25h-782.007c-32.391 0-58.649 26.256-58.649 58.647s26.256 58.661 58.649 58.661h782.009c32.406 0 58.649-26.27 58.649-58.661-0.001-32.393-26.245-58.647-58.649-58.647z"  horiz-adv-x="1024" />

    
    <glyph glyph-name="jiechubangding" unicode="&#58959;" d="M304.384 354.688l-267.52-267.52a126.336 126.336 0 0 1 0-178.304c23.68-23.744 55.424-36.864 89.152-36.864 33.792 0 65.472 13.12 89.216 36.864l267.52 267.52c23.68 23.68 36.8 55.424 36.8 89.152s-13.12 65.472-36.8 89.152c-47.488 47.552-130.944 47.552-178.368 0z m133.76-133.76l-267.52-267.52a64.64 64.64 0 0 0-89.216 0 63.168 63.168 0 0 0 0 89.216l267.52 267.52a62.528 62.528 0 0 0 44.608 18.368c16.96 0 32.768-6.528 44.608-18.432a62.464 62.464 0 0 0 18.368-44.544 62.464 62.464 0 0 0-18.368-44.608zM987.136 680.768c23.744 23.744 36.864 55.424 36.864 89.216 0 33.728-13.12 65.408-36.864 89.152a126.272 126.272 0 0 1-178.368 0l-267.456-267.52c-23.744-23.68-36.864-55.424-36.864-89.152a125.632 125.632 0 0 1 126.016-126.016c32.256 0 64.64 12.224 89.152 36.8l267.52 267.52z m-401.28-222.912a62.464 62.464 0 0 0-18.368 44.608c0 16.896 6.528 32.704 18.432 44.608l267.456 267.52a62.976 62.976 0 0 0 89.152 0 62.464 62.464 0 0 0 18.432-44.608 62.528 62.528 0 0 0-18.432-44.608l-267.52-267.52a63.168 63.168 0 0 0-89.088 0zM333.696 517.76a31.424 31.424 0 0 1 44.544 0 31.488 31.488 0 0 1 0 44.544l-133.76 133.76a31.488 31.488 0 1 1-44.544-44.544l133.76-133.76zM60.8 397.056h189.12a31.488 31.488 0 1 1 0 63.04H60.736a31.488 31.488 0 1 1 0-63.04zM467.392 614.592c17.472 0 31.552 14.08 31.552 31.488V835.264a31.488 31.488 0 1 1-63.04 0v-189.184c0-17.408 14.08-31.488 31.488-31.488zM693.056 247.552a31.488 31.488 0 1 1-44.608-44.608l133.76-133.76a31.424 31.424 0 0 1 44.544 0 31.488 31.488 0 0 1 0 44.608l-133.76 133.76zM559.296 150.72a31.488 31.488 0 0 1-31.552-31.552v-189.184a31.488 31.488 0 1 1 63.104 0v189.184a31.488 31.488 0 0 1-31.552 31.552zM966.016 368.256h-189.184a31.488 31.488 0 1 1 0-63.104h189.184a31.488 31.488 0 1 1 0 63.104z"  horiz-adv-x="1024" />

    
    <glyph glyph-name="xiala" unicode="&#58941;" d="M919.8 536.233l-364.6-398.7a57.377 57.377 0 0 0-43.1-19.5c-16.5 0-32.2 7.1-43.1 19.5l-364.6 398.7c-17.8 18.8-23.3 46.2-14.1 70.4s31.4 41.1 57.2 43.4h728.9c25.9-2.2 48.2-19 57.4-43.3 9.3-24.3 3.8-51.6-14-70.5z"  horiz-adv-x="1024" />

    
    <glyph glyph-name="dizhi" unicode="&#58914;" d="M300.8 121.60000000000002c-6.4 12.8-19.2 19.2-38.4 19.2-108.8-25.6-179.2-64-179.2-115.2 0-89.6 192-140.8 428.8-140.8s428.8 51.2 428.8 140.8c0 57.6-76.8 96-192 121.6-19.2 6.4-38.4-6.4-38.4-25.6 0-19.2 6.4-32 25.6-38.4 89.6-19.2 140.8-44.8 140.8-57.6l-19.2-19.2c-19.2-12.8-44.8-19.2-76.8-32-70.4-19.2-166.4-32-268.8-32s-198.4 12.8-268.8 32c-32 6.4-57.6 19.2-76.8 32-12.8 6.4-19.2 12.8-19.2 19.2 0 12.8 51.2 38.4 128 57.6 32 6.4 32 25.6 25.6 38.4zM876.8 524.8C876.8 729.6 710.4 889.6 512 889.6S147.2 723.2 147.2 524.8c0-102.4 38.4-192 102.4-256L454.4 64c25.6-25.6 76.8-25.6 102.4 0L768 262.4c70.4 70.4 108.8 160 108.8 262.4z m-313.6-384c-51.2-51.2-51.2-51.2-102.4 0L294.4 307.20000000000005c-51.2 57.6-89.6 128-89.6 217.6C204.8 691.2 339.2 832 512 832c166.4 0 307.2-134.4 307.2-307.2 0-83.2-32-160-89.6-217.6l-166.4-166.4zM512 704C409.6 704 326.4 620.8 326.4 524.8c0-102.4 83.2-185.6 185.6-185.6s185.6 83.2 185.6 185.6C697.6 620.8 614.4 704 512 704z m0-307.2c-70.4 0-121.6 57.6-121.6 121.6C390.4 588.8 448 640 512 640s121.6-57.6 121.6-121.6S582.4 396.8 512 396.8z"  horiz-adv-x="1024" />

    
    <glyph glyph-name="huanbaoxinxi" unicode="&#58890;" d="M918.016 208.96h-236.032V300.928l-120.32-214.4L681.984-128v91.52h120.32c29.184 0 57.344 15.168 72.704 42.496L1024 270.976c-22.016-38.4-62.464-62.528-105.984-62.08z m-168.96 369.024l120.832 214.4-77.312-46.208s-30.208 54.144-42.496 75.712c-16.896 29.952-48.64 49.408-82.432 48.896-33.792 0-65.536-18.944-82.432-49.408 0 0-27.648-48.896-55.296-98.816l56.32-99.904-77.824-45.184 240.64 0.512zM284.16 333.44l-118.272-209.728a127.744 127.744 0 0 1-0.512-125.632L16.384 263.104a87.68 87.68 0 0 0 0.512 86.208l60.416 106.688L0 501.76h241.152l120.32-214.464L284.16 333.44z m525.824-98.816l-120.32 214.464 206.848 122.496c47.104-84.608 107.008-190.784 107.008-190.784 17.408-29.952 17.408-67.328 0.512-97.792a95.36 95.36 0 0 0-82.944-48.384h-111.104zM186.368 107.52s27.648 48.896 55.808 99.328h241.152v-245.504H268.8a93.056 93.056 0 0 0-82.944 48.384 99.328 99.328 0 0 0 0.512 97.792zM564.224 833.92c-28.16-49.92-184.32-327.424-183.808-327.424L172.544 629.504s99.328 179.2 125.44 222.848C312.832 878.144 338.944 896 370.176 896h297.984c-43.52 0-81.92-23.104-103.936-62.08z"  horiz-adv-x="1024" />

    
    <glyph glyph-name="gou" unicode="&#58885;" d="M430.464 245.12L229.824 445.632a48 48 0 1 1-67.84-67.84l225.408-225.472a47.808 47.808 0 0 1 18.496-11.52 48 48 0 0 1 61.504 5.376l388.288 388.288a48 48 0 0 1-67.84 67.84L430.464 245.12z"  horiz-adv-x="1024" />

    
    <glyph glyph-name="shaixuan" unicode="&#58986;" d="M654.933333 405.333333l-51.2 55.466667 268.8 238.933333c12.8 14.933333 6.4 29.866667 4.266667 34.133334s-10.666667 19.2-29.866667 19.2h-669.866666c-19.2 0-27.733333-14.933333-29.866667-19.2-2.133333-4.266667-8.533333-19.2 4.266667-34.133334l268.8-238.933333-51.2-55.466667-273.066667 243.2c-29.866667 32-36.266667 76.8-19.2 115.2s55.466667 64 98.133333 64h669.866667c42.666667 0 81.066667-25.6 98.133333-64 17.066667-40.533333 10.666667-83.2-19.2-115.2l-4.266666-4.266666c4.266667 0-264.533333-238.933333-264.533334-238.933334zM450.133333 6.4c-10.666667 0-21.333333 4.266667-27.733333 12.8l-64 72.533333v341.333334c0 21.333333 17.066667 38.4 38.4 38.4s38.4-17.066667 38.4-38.4v-313.6l44.8-51.2c14.933333-14.933333 12.8-38.4-2.133333-53.333334-8.533333-4.266667-17.066667-8.533333-27.733334-8.533333z m183.466667-66.133333c-21.333333 0-38.4 17.066667-38.4 38.4v458.666666c0 21.333333 17.066667 38.4 38.4 38.4s38.4-17.066667 38.4-38.4V-21.333333c0-21.333333-17.066667-38.4-38.4-38.4z m315.733333 411.733333H725.333333c-14.933333 0-27.733333 12.8-27.733333 27.733333s12.8 27.733333 27.733333 27.733334h224c14.933333 0 27.733333-12.8 27.733334-27.733334s-12.8-27.733333-27.733334-27.733333z m0-138.666667H725.333333c-14.933333 0-27.733333 12.8-27.733333 27.733334 0 14.933333 12.8 27.733333 27.733333 27.733333h224c14.933333 0 27.733333-12.8 27.733334-27.733333 0-14.933333-12.8-27.733333-27.733334-27.733334z m0-145.066666H725.333333c-14.933333 0-27.733333 12.8-27.733333 27.733333 0 14.933333 12.8 27.733333 27.733333 27.733333h224c14.933333 0 27.733333-12.8 27.733334-27.733333 0-14.933333-12.8-27.733333-27.733334-27.733333z"  horiz-adv-x="1024" />

    
    <glyph glyph-name="dingdanhao" unicode="&#59009;" d="M271.60064 520.260267l-3.413333-373.661014c0-42.3936-68.54656-42.559147-68.54656 0V607.766187c0 28.946773 6.946133 37.2736 27.506346 38.340266 16.57344 0.866987 34.213547-7.773867 52.840107-33.1008l276.333227-370.845013-3.413334 371.812693c0 50.8672 69.49376 50.82624 69.49376 0v-461.166933c0-24.712533-6.90688-29.192533-27.508053-30.306987-18.67264-0.986453-33.846613 9.214293-46.098773 30.926507L271.60064 520.260267z m399.158613-211.11296c0 291.131733 371.401387 290.51904 371.401387 0 0-282.16832-371.401387-285.294933-371.401387 0z m57.72288-0.377174c0-197.70368 254.143147-205.334187 254.143147 0 0 113.063253-62.537387 159.153493-127.761067 157.94688-65.230507-1.19808-126.38208-49.73056-126.38208-157.94688z m396.45184-132.4032c17.913173 0 32.525653-14.614187 32.525654-32.52736 0-17.908053-14.61248-32.520533-32.525654-32.520533-17.908053 0-32.52736 14.614187-32.52736 32.520533 0 17.913173 14.6176 32.52736 32.52736 32.52736z m0 0"  horiz-adv-x="1365" />

    
    <glyph glyph-name="info" unicode="&#59199;" d="M460.1856 883.28192c-55.61344-5.65248-117.3504-23.56224-169.18528-49.24416-102.26688-50.65728-178.3808-126.53568-228.80256-228.80256-121.82528-245.53472-22.14912-544.09216 222.91456-668.50816 247.18336-125.5936 548.5568-26.85952 674.1504 220.55936 98.49856 193.6896 61.0304 427.91936-92.60032 581.31456C760.39168 845.1072 610.51904 898.36544 460.1856 883.28192z m139.97056-188.27264c16.96768-6.35904 32.74752-20.736 40.76544-37.23264 5.18144-10.83392 6.35904-16.26112 6.35904-29.92128-0.23552-21.20704-6.6048-35.11296-23.56224-50.42176-47.36-43.35616-128.18432-12.02176-128.18432 49.24416 0 8.71424 1.1776 19.32288 2.82624 23.79776 6.83008 20.02944 25.21088 37.9392 46.65344 45.24032 15.31904 5.41696 39.58784 4.94592 55.1424-0.70656z m-55.61344-209.7152c19.08736-6.83008 37.9392-23.32672 45.24032-40.52992 12.4928-28.74368 9.19552-57.96864-16.49664-148.92032-22.14912-78.70464-25.91744-95.4368-25.91744-116.1728 0-18.85184 4.7104-29.68576 15.31904-34.64192 11.30496-5.41696 41.70752-4.94592 60.32384 0.94208 8.2432 2.3552 15.31904 4.23936 15.79008 3.76832 0.47104-0.47104-1.1776-8.2432-3.5328-17.2032l-4.23936-16.0256-18.85184-7.53664c-53.248-21.44256-85.06368-27.33056-118.99904-22.14912-32.0512 4.94592-54.20032 19.08736-67.15392 43.12064-5.41696 10.12736-7.0656 16.0256-7.77216 32.04096-1.41312 27.56608 2.11968 45.71136 23.32672 120.8832 21.44256 76.58496 25.68192 95.4368 25.68192 115.23072 0 19.5584-4.7104 29.93152-15.55456 34.4064-12.25728 5.18144-41.00096 4.47488-59.61728-1.1776l-14.848-4.7104 1.41312 8.71424c4.23936 25.91744 3.29728 24.97536 35.11296 36.52608 27.56608 10.1376 49.00864 16.49664 64.09216 19.08736 15.79008 2.3552 51.84512-0.70656 66.68288-5.65248z"  horiz-adv-x="1024" />

    
    <glyph glyph-name="zhifu" unicode="&#58949;" d="M208.384 59.904c-31.744 0-54.272 26.112-54.272 57.856v247.296c0 8.192-6.656 14.336-14.336 14.336-8.192 0-14.336-6.656-14.336-14.336V117.76c0-48.128 35.84-87.04 83.456-87.04 8.192 0 14.336 6.656 14.336 14.336 0 8.192-6.656 14.848-14.848 14.848z m71.168-0.512h-14.336c-8.192 0-14.336-6.656-14.336-14.336 0-8.192 6.656-14.336 14.336-14.336h14.336c8.192 0 14.336 6.656 14.336 14.336 0.512 7.68-6.144 14.336-14.336 14.336z m617.984 349.184h-59.392v133.12c0 45.568-34.816 83.968-78.336 95.744 1.024 5.12 0.512 10.24-1.536 15.36l-62.976 168.448c-2.56 7.168-8.192 13.312-15.36 16.384-7.168 3.072-14.848 3.584-22.528 1.024L154.112 650.752c-5.12-2.048-9.216-5.12-12.288-8.704h-23.552c-55.808 0-95.232-44.544-95.232-99.84V30.72c0-56.32 39.936-101.888 95.232-101.888H732.16c55.808 0 106.496 45.568 106.496 101.888v116.224h59.392c55.808 0 100.864 45.056 100.864 100.864v60.416c-0.512 55.296-45.568 100.352-101.376 100.352z m-246.272 365.568l49.152-132.608H296.96l354.304 132.608z m129.024-743.936c0-23.552-25.088-43.52-48.128-43.52H118.784c-23.04 0-37.376 19.968-37.376 43.52V541.696c0 23.552 13.312 41.472 37.376 41.472H732.16c24.064 0 48.128-18.432 48.128-41.472v-133.12h-88.576c-55.808 0-100.864-45.056-100.864-100.864v-60.416c0-55.808 45.056-100.864 100.864-100.864h88.576v-116.224z m159.744 217.6c0-23.552-18.944-42.496-42.496-42.496h-205.824c-23.552 0-42.496 18.944-42.496 42.496v60.416c0 23.552 18.944 42.496 42.496 42.496h205.824c23.552 0 42.496-18.944 42.496-42.496v-60.416z m-217.6 58.88c-15.36 0-28.16-12.288-28.16-28.16 0-15.36 12.288-27.648 28.16-27.648 15.36 0 28.16 12.288 28.16 27.648 0 15.872-12.8 28.16-28.16 28.16z"  horiz-adv-x="1024" />

    
    <glyph glyph-name="peisong_icon" unicode="&#59013;" d="M334.848 813.568v-159.232l-112.128-11.776c-17.92-6.144-29.696-11.776-41.472-23.552L39.936 459.264v-354.304H128c0-82.432 65.024-147.456 147.456-147.456s147.456 65.024 147.456 147.456h177.152c0-82.432 65.024-147.456 147.456-147.456s147.456 65.024 147.456 147.456h88.576V813.568H334.848zM140.288 163.84000000000003h-41.472V435.2l130.048 141.824 106.496 17.92V240.64c-17.92 6.144-35.328 11.776-58.88 11.776-59.904 0-112.64-35.328-136.192-88.576z m135.68-147.456c-47.104 0-88.576 41.472-88.576 88.576s41.472 88.576 88.576 88.576 88.576-41.472 88.576-88.576-41.472-88.576-88.576-88.576z m472.064 0c-47.104 0-88.576 41.472-88.576 88.576s41.472 88.576 88.576 88.576 88.576-41.472 88.576-88.576-40.96-88.576-88.576-88.576z m177.152 147.456h-41.472c-23.552 53.248-76.8 88.576-135.68 88.576s-112.128-35.328-135.68-88.576H411.648c-6.144 11.776-11.776 17.92-17.92 29.696V754.1759999999999h531.456V163.84000000000003z"  horiz-adv-x="1024" />

    
    <glyph glyph-name="sousuo" unicode="&#58893;" d="M950-17.9L745.9 186.2c60.7 68.5 97.6 158.5 97.6 257 0 214-174.1 388.2-388.2 388.2S67.1 657.2 67.1 443.1 241.3 55 455.3 55c96.1 0 184.2 35.2 252 93.3l204.4-204.4c5.3-5.3 12.2-7.9 19.1-7.9s13.8 2.6 19.1 7.9c10.6 10.5 10.6 27.6 0.1 38.2z m-828.8 461c0 184.2 149.9 334.1 334.1 334.1 184.2 0 334.1-149.9 334.1-334.1S639.6 109 455.3 109c-184.2 0-334.1 149.9-334.1 334.1z"  horiz-adv-x="1024" />

    
    <glyph glyph-name="icon-" unicode="&#58884;" d="M268.02606186-38.30899283999997a117.44211993 117.44211993 0 0 0-117.28124029 117.2812403L150.74482157 689.0277525399999A117.44211993 117.44211993 0 0 0 268.02606186 806.30899284l488.02831609 0a117.44211993 117.44211993 0 0 0 117.2812403-117.2812403l0-609.97506528a117.44211993 117.44211993 0 0 0-117.2812403-117.28124029z m0 792.97562884a65.79976308 65.79976308 0 0 1-65.71932328-65.71932326l0-609.97506528a65.79976308 65.79976308 0 0 1 65.71932328-65.71932326l488.02831609 0a65.79976308 65.79976308 0 0 1 65.71932328 65.71932326L821.77370123 689.0277525399999a65.79976308 65.79976308 0 0 1-65.71932328 65.71932326zM318.94446042 358.17882159a25.82117841 25.82117841 0 1 0 0 51.56191701l386.11107916 0a25.82117841 25.82117841 0 1 0 0-51.56191701zM318.94446042 236.23207242a25.82117841 25.82117841 0 1 0 0 51.24015779l263.44037172 0a25.82117841 25.82117841 0 1 0 0-51.64235684zM318.94446042 480.52776979a25.82117841 25.82117841 0 1 0 0 51.64235684l386.11107916 0a25.82117841 25.82117841 0 1 0 0-51.64235684z"  horiz-adv-x="1024" />

    
    <glyph glyph-name="gouwuche" unicode="&#58883;" d="M347.136 112.63999999999999q19.456 0 36.864-7.168t30.72-19.968 20.48-30.208 7.168-36.864-7.168-36.864-20.48-30.208-30.72-20.48-36.864-7.68q-20.48 0-37.376 7.68t-30.208 20.48-20.48 30.208-7.168 36.864 7.168 36.864 20.48 30.208 30.208 19.968 37.376 7.168zM773.12 110.59199999999998q19.456 0 37.376-7.168t30.72-19.968 20.48-30.208 7.68-36.864-7.68-36.864-20.48-30.208-30.72-20.48-37.376-7.68-36.864 7.68-30.208 20.48-20.48 30.208-7.68 36.864 7.68 36.864 20.48 30.208 30.208 19.968 36.864 7.168zM945.152 692.2239999999999q28.672 0 44.544-7.68t22.528-18.944 6.144-24.064-3.584-22.016-12.8-37.888-22.016-62.976-24.064-68.096-17.92-53.248q-13.312-40.96-33.792-56.832t-50.176-15.872l-34.816 0-66.56 0-87.04 0-95.232 0-253.952 0 15.36-92.16 516.096 0q49.152 0 49.152-41.984 0-20.48-9.728-35.328t-38.4-14.848l-49.152 0-95.232 0-117.76 0-119.808 0-98.304 0-56.32 0q-20.48 0-34.304 9.216t-23.04 24.064-14.848 32.256-8.704 32.768q-1.024 6.144-5.632 29.696t-11.264 58.88-14.848 78.848-16.384 87.552q-19.456 103.424-44.032 230.4l-76.8 0q-15.36 0-25.6 7.68t-16.896 18.432-9.216 23.04-2.56 22.528q0 20.48 13.824 33.792t37.376 13.312l22.528 0 20.48 0 25.6 0 34.816 0q20.48 0 32.768-6.144t19.456-15.36 10.24-19.456 5.12-17.408q2.048-8.192 4.096-23.04t4.096-30.208q3.072-18.432 6.144-38.912l700.416 0z"  horiz-adv-x="1024" />

    
    <glyph glyph-name="querenqucan" unicode="&#59184;" d="M512 896C230.4 896 0 665.6 0 384s230.4-512 512-512 512 230.4 512 512c-2.844444 281.6-230.4 512-512 512z m0-967.111111C261.688889-71.111111 56.888889 133.688889 56.888889 384S261.688889 839.111111 512 839.111111s455.111111-204.8 455.111111-455.111111-204.8-455.111111-455.111111-455.111111zM190.577778 128h640v62.577778H190.577778c-8.533333 2.844444 0-62.577778 0-62.577778zM531.911111 560.355556V665.6l42.666667-25.6c11.377778 0 17.066667 34.133333 17.066666 45.511111 0 11.377778-8.533333 19.911111-19.911111 19.911111h-119.466666c-11.377778 0-19.911111-8.533333-19.911111-19.911111 0-11.377778 5.688889-45.511111 17.066666-45.511111l42.666667 25.6v-102.4c-167.822222-11.377778-298.666667-82.488889-298.666667-250.311111v-54.044445h640v54.044445c-2.844444 164.977778-133.688889 238.933333-301.511111 247.466667z"  horiz-adv-x="1024" />

    
    <glyph glyph-name="dianhuazixunhuawuzongheguanlibl" unicode="&#58938;" d="M849.92 844.8H174.08c-67.584 0-122.88-55.296-122.88-122.88v-675.84c0-67.584 55.296-122.88 122.88-122.88h675.84c67.584 0 122.88 55.296 122.88 122.88V721.92c0 67.584-55.296 122.88-122.88 122.88z m-122.88-714.752c-38.912-39.424-184.32-1.536-327.68 141.312-143.872 143.36-180.736 288.768-140.8 327.68 33.792 33.792 75.264 93.184 136.704 15.872s31.744-98.304-4.096-133.12C366.592 457.728 418.304 396.288 471.04 343.04c53.76-52.736 114.688-104.448 138.752-79.872 35.328 35.328 56.832 65.024 132.608 4.096 77.312-62.464 18.432-104.448-15.36-137.216z"  horiz-adv-x="1024" />

    
    <glyph glyph-name="long-arrow-rt" unicode="&#59244;" d="M3.190031 434.04361359l861.30841101 2e-8L864.49844201 354.29283461 3.19003099 354.29283461l1e-8 79.75077898zM823.02803698 513.79439262L1023.99999999 395.7632396l-200.97196301-121.22118401 0 239.25233703z"  horiz-adv-x="1024" />

    
    <glyph glyph-name="jiahao" unicode="&#58960;" d="M512-62.017c-119.648 0-232.129 46.368-316.737 130.56C110.623 152.798 64 264.799 64 383.998c0 119.169 46.624 231.2 131.232 315.425 84.608 84.191 197.089 130.56 316.737 130.56s232.129-46.369 316.704-130.56c84.672-84.225 131.263-196.256 131.263-315.392 0.033-119.2-46.591-231.233-131.263-315.455C744.13-15.616 631.648-62.017 512-62.017z m0 828.034c-102.624 0-199.072-39.744-271.583-111.937C167.937 581.952 128 486.016 128 384s39.903-197.952 112.384-270.047c72.512-72.192 168.96-111.937 271.583-111.937 102.593 0 199.072 39.744 271.584 111.937 72.48 72.16 112.416 168.063 112.384 270.08 0 102.016-39.904 197.919-112.384 270.016C711.07 726.24 614.593 766.017 512 766.017zM736 416H544V608c0 17.664-14.335 32-32 32s-32-14.336-32-32v-192H288c-17.664 0-32-14.337-32-32.002s14.336-32 32-32h192v-192c0-17.696 14.337-32.001 32.002-32.001s32 14.303 32 32V352h192c17.696 0 32.001 14.336 32.001 32.001s-14.306 32-32.002 32z"  horiz-adv-x="1024" />

    
    <glyph glyph-name="dianhua" unicode="&#58957;" d="M679.539 280.65c-16.62 4.457-42.017-23.685-42.017-23.685-8.118-8.118-15.488-21.818-21.997-36.363-10.401-23.243-39.558-31.861-60.656-17.603-85.916 58.064-168.97 141.34-226.592 227.297-13.838 20.642-5.953 48.863 16.253 60.017 20.279 10.186 39.022 20.034 39.022 20.034l-0.153 0.508c13.867 6.312 21.667 21.914 17.6 37.09 0 0-116.004 284.034-149.172 284.034-103.732 0-187.845-84.113-187.845-187.845 0-23.794 4.59-46.335 12.731-67.207 87.034-302.015 324.764-539.534 626.778-626.778 20.872-8.14 43.622-12.731 67.416-12.731 103.731 0 189.41 79.104 189.41 182.836 0 0-142.915 104.992-280.778 160.396z"  horiz-adv-x="1024" />

    


  </font>
</defs>
</svg>
